HIERARCHY
ROOT reference
{
  OFFSET 0 0 0
  CHANNELS 6 Xposition Yposition Zposition Zrotation Xrotation Yrotation
  JOINT Hips
  {
    OFFSET 0 97.8064 0
    CHANNELS 6 Xposition Yposition Zposition Zrotation Xrotation Yrotation
    JOINT ToSpine
    {
      OFFSET -2.69724 7.43032 -0.144315
      CHANNELS 6 Xposition Yposition Zposition Zrotation Xrotation Yrotation
      JOINT Spine
      {
        OFFSET -0.0310711 10.7595 1.96963
        CHANNELS 6 Xposition Yposition Zposition Zrotation Xrotation Yrotation
        JOINT Spine1
        {
          OFFSET 13.1342 3.43533 0.764692
          CHANNELS 6 Xposition Yposition Zposition Zrotation Xrotation Yrotation
          JOINT Neck
          {
            OFFSET 29.8703 7.82586 -0.130764
            CHANNELS 6 Xposition Yposition Zposition Zrotation Xrotation Yrotation
            JOINT Head
            {
              OFFSET 9.52751 0.295786 -0.907742
              CHANNELS 6 Xposition Yposition Zposition Zrotation Xrotation Yrotation
              End Site
              {
                OFFSET 16.4037 0.713936 2.7358
              }
            }
          }
          JOINT LeftShoulder
          {
            OFFSET 27.5574 4.95586 2.47156
            CHANNELS 6 Xposition Yposition Zposition Zrotation Xrotation Yrotation
            JOINT LeftArm
            {
              OFFSET 1.20734 -0.998971 20.1238
              CHANNELS 6 Xposition Yposition Zposition Zrotation Xrotation Yrotation
              JOINT LeftForeArm
              {
                OFFSET 26.8049 -0.0536703 -0.155908
                CHANNELS 6 Xposition Yposition Zposition Zrotation Xrotation Yrotation
                JOINT LeftHand
                {
                  OFFSET 26.6817 0 0.320147
                  CHANNELS 6 Xposition Yposition Zposition Zrotation Xrotation Yrotation
                  End Site
                  {
                    OFFSET 18.6119 0 0.382219
                  }
                }
              }
            }
          }
          JOINT RightShoulder
          {
            OFFSET 27.5927 4.71444 -2.65209
            CHANNELS 6 Xposition Yposition Zposition Zrotation Xrotation Yrotation
            JOINT RightArm
            {
              OFFSET 2.83739 -1.17114 -18.7564
              CHANNELS 6 Xposition Yposition Zposition Zrotation Xrotation Yrotation
              JOINT RightForeArm
              {
                OFFSET 28.839 -0.0548439 1.22491
                CHANNELS 6 Xposition Yposition Zposition Zrotation Xrotation Yrotation
                JOINT RightHand
                {
                  OFFSET 26.5114 0 -0.101894
                  CHANNELS 6 Xposition Yposition Zposition Zrotation Xrotation Yrotation
                  End Site
                  {
                    OFFSET 18.2168 0 0
                  }
                }
              }
            }
          }
        }
      }
    }
    JOINT LeftUpLeg
    {
      OFFSET -4.76168 -1.9167 -10.2353
      CHANNELS 6 Xposition Yposition Zposition Zrotation Xrotation Yrotation
      JOINT LeftLeg
      {
        OFFSET 2.55951 -42.0585 -8.02213
        CHANNELS 6 Xposition Yposition Zposition Zrotation Xrotation Yrotation
        JOINT LeftFoot
        {
          OFFSET 3.16357 -42.5282 -3.95426
          CHANNELS 6 Xposition Yposition Zposition Zrotation Xrotation Yrotation
          JOINT LeftToeBase
          {
            OFFSET 0.346054 -6.02161 12.8035
            CHANNELS 6 Xposition Yposition Zposition Zrotation Xrotation Yrotation
            End Site
            {
              OFFSET 0.134235 -1.35082 5.13018
            }
          }
        }
      }
    }
    JOINT RightUpLeg
    {
      OFFSET -4.94151 -1.41743 10.6446
      CHANNELS 6 Xposition Yposition Zposition Zrotation Xrotation Yrotation
      JOINT RightLeg
      {
        OFFSET -2.56294 -42.0364 -7.94377
        CHANNELS 6 Xposition Yposition Zposition Zrotation Xrotation Yrotation
        JOINT RightFoot
        {
          OFFSET -3.0952 -42.555 -4.02241
          CHANNELS 6 Xposition Yposition Zposition Zrotation Xrotation Yrotation
          JOINT RightToeBase
          {
            OFFSET -0.0828122 -6.13587 12.8035
            CHANNELS 6 Xposition Yposition Zposition Zrotation Xrotation Yrotation
            End Site
            {
              OFFSET -0.131328 -1.35082 5.13018
            }
          }
        }
      }
    }
  }
}
MOTION
Frames:	4
Frame Time:	0.0333333
0 0 0 0 0 -0 24.8486 88.8304 6.21771 90.3115 -14.208 1.80805 -2.69724 7.43032 -0.144315 -70.1915 -4.77083e-015 88.8779 -0.0310711 10.7595 1.96963 54.1073 65.6268 34.8864 13.1342 3.43533 0.764692 0.859972 19.4454 5.71657 29.8703 7.82586 -0.130764 -130.51 45.7979 135.743 9.52751 0.295786 -0.907742 -76.7339 75.2586 92.2181 27.5574 4.95586 2.47156 -0.430807 -18.1823 -28.6822 1.20734 -0.998971 20.1238 -51.9999 28.4161 -143.292 26.8049 -0.0536703 -0.155908 18.842 -6.0872 -106.459 26.6817 -4.26326e-014 0.320147 3.18055e-015 -1.59028e-015 -4.77083e-015 27.5927 4.71444 -2.65209 -1.56755 7.75638 34.4742 2.83739 -1.17114 -18.7564 -131.658 4.37642 75.269 28.839 -0.0548439 1.22491 20.1826 -8.23546 68.6059 26.5114 2.84217e-014 -0.101894 -1.10527e-012 -4.76473e-009 -0.0296889 -4.76168 -1.9167 -10.2353 -63.3864 11.7011 84.8862 2.55951 -42.0585 -8.02213 -5.57917 54.6805 -13.8993 3.16357 -42.5282 -3.95426 3.50988 -23.4397 -1.70779 0.346054 -6.02161 12.8035 4.27608 -12.4552 21.8711 -4.94151 -1.41743 10.6446 -64.0995 -15.0691 78.4567 -2.56294 -42.0364 -7.94377 2.2811 51.4313 -4.39385 -3.0952 -42.555 -4.02241 -5.10023 -18.8188 1.44921 -0.0828122 -6.13587 12.8035 2.40212 -11.8486 -16.348 
0 0 0 0 0 -0 24.7575 89.2858 6.24345 89.2029 -14.5649 1.34373 -2.69724 7.43032 -0.144315 -70.1915 -2.38542e-015 88.8779 -0.0310711 10.7595 1.96963 54.6857 65.7674 33.4894 13.1342 3.43533 0.764692 1.23846 19.001 6.47007 29.8703 7.82586 -0.130764 -131.792 45.9757 137.296 9.52751 0.295786 -0.907742 -78.1467 76.1063 92.8369 27.5574 4.95586 2.47156 -0.319312 -17.7426 -28.2633 1.20734 -0.998971 20.1238 -52.3437 28.3403 -144.76 26.8049 -0.0536703 -0.155908 19.463 -5.8497 -105.297 26.6817 -1.42109e-014 0.320147 -3.18055e-015 0 -3.18055e-015 27.5927 4.71444 -2.65209 -1.56975 7.5631 35.0727 2.83739 -1.17114 -18.7564 -132.496 4.61656 76.3648 28.839 -0.0548439 1.22491 19.4731 -7.42767 69.8115 26.5114 2.84217e-014 -0.101894 -1.10309e-012 -4.76474e-009 -0.0296889 -4.76168 -1.9167 -10.2353 -62.979 11.7594 85.5302 2.55951 -42.0585 -8.02213 -5.2465 53.1861 -13.9428 3.16357 -42.5282 -3.95426 3.0462 -22.2128 -1.6758 0.346054 -6.02161 12.8035 4.44674 -12.488 20.0134 -4.94151 -1.41743 10.6446 -63.4016 -15.327 78.0167 -2.56294 -42.0364 -7.94377 2.01957 50.153 -4.84156 -3.0952 -42.555 -4.02241 -5.21479 -17.9072 1.41207 -0.0828122 -6.13587 12.8035 2.17058 -11.9943 -12.3745 
0 0 0 0 0 -0 24.4635 89.9135 6.2547 87.5153 -14.8129 0.553338 -2.69724 7.43032 -0.144315 -70.1915 -3.97569e-015 88.8779 -0.0310711 10.7595 1.96963 54.3689 65.6639 31.8995 13.1342 3.43533 0.764692 1.67228 18.1733 7.99503 29.8703 7.82586 -0.130764 -132.344 45.693 139.04 9.52751 0.295786 -0.907742 -80.2912 77.5396 95.1393 27.5574 4.95586 2.47156 -0.213009 -17.3711 -27.6914 1.20734 -0.998971 20.1238 -52.8378 28.5835 -145.853 26.8049 -0.0536703 -0.155908 20.6713 -5.80444 -104.229 26.6817 -2.84217e-014 0.320147 -3.18055e-015 3.18055e-015 -3.18055e-015 27.5927 4.71444 -2.65209 -1.41363 6.81896 35.2217 2.83739 -1.17114 -18.7564 -133.131 3.42703 77.7185 28.839 -0.0548439 1.22491 18.2544 -6.29953 71.4914 26.5114 3.55271e-014 -0.101894 -1.10816e-012 -4.76475e-009 -0.0296889 -4.76168 -1.9167 -10.2353 -62.0656 11.6953 86.3348 2.55951 -42.0585 -8.02213 -4.85781 51.1774 -14.0667 3.16357 -42.5282 -3.95426 2.34137 -20.7976 -1.63664 0.346054 -6.02161 12.8035 4.48666 -12.3483 18.251 -4.94151 -1.41743 10.6446 -62.0772 -15.1947 78.3891 -2.56294 -42.0364 -7.94377 2.02113 48.618 -3.78551 -3.0952 -42.555 -4.02241 -4.2853 -16.8275 1.39362 -0.0828122 -6.13587 12.8035 2.293 -12.0736 -14.5468 
0 0 0 0 0 -0 24.0568 90.6254 6.13764 85.6897 -15.1504 -0.0937845 -2.69724 7.43032 -0.144315 -70.1915 -2.38542e-015 88.8779 -0.0310711 10.7595 1.96963 56.0915 65.8646 28.75 13.1342 3.43533 0.764692 1.50484 17.3 9.26912 29.8703 7.82586 -0.130764 -132.278 45.3026 140.928 9.52751 0.295786 -0.907742 -82.8382 78.9688 98.2425 27.5574 4.95586 2.47156 -0.121148 -17.0701 -27.0752 1.20734 -0.998971 20.1238 -53.419 28.8042 -146.761 26.8049 -0.0536703 -0.155908 21.0796 -5.70173 -103.681 26.6817 -4.26326e-014 0.320147 6.36111e-015 1.59028e-015 -0 27.5927 4.71444 -2.65209 -1.4149 6.43491 36.6039 2.83739 -1.17114 -18.7564 -133.866 3.47971 79.4893 28.839 -0.0548439 1.22491 17.2948 -5.23466 73.5554 26.5114 2.84217e-014 -0.101894 -1.10896e-012 -4.76475e-009 -0.0296889 -4.76168 -1.9167 -10.2353 -61.1498 11.5669 86.8357 2.55951 -42.0585 -8.02213 -4.4238 48.8184 -13.7893 3.16357 -42.5282 -3.95426 1.68448 -19.3491 -1.57488 0.346054 -6.02161 12.8035 4.4857 -12.1756 16.7079 -4.94151 -1.41743 10.6446 -60.746 -14.9183 78.5598 -2.56294 -42.0364 -7.94377 1.8587 46.5725 -3.41206 -3.0952 -42.555 -4.02241 -3.42484 -15.5364 1.34441 -0.0828122 -6.13587 12.8035 2.29028 -11.4324 -14.38 
